<svg width="50" height="50" viewBox="0 0 50 50" fill="none" xmlns="http://www.w3.org/2000/svg">
<path d="M11.905 0H38.095C44.67 0 50 5.33 50 11.905V38.095C50 44.67 44.67 50 38.095 50H11.905C5.33 50 0 44.67 0 38.095V11.905C0 5.33 5.33 0 11.905 0Z" fill="#0E0E16"/>
<path fill-rule="evenodd" clip-rule="evenodd" d="M14.0515 25.236C14.1885 25.952 14.8275 26.461 15.5565 26.434H31.5635L31.1355 26.626C30.8725 26.761 30.6315 26.937 30.4215 27.146L26.4845 31.096C25.9655 31.591 25.8775 32.389 26.2775 32.985C26.3155 33.034 26.3565 33.081 26.3995 33.125C26.9555 33.683 27.8585 33.684 28.4165 33.128L35.5485 25.998C35.5485 25.998 35.5485 25.998 35.5495 25.997C36.1065 25.44 36.1055 24.537 35.5485 23.981L28.4165 16.852C28.3705 16.808 28.3225 16.767 28.2705 16.729C27.6345 16.263 26.7415 16.402 26.2765 17.037C25.8765 17.633 25.9645 18.43 26.4835 18.926L30.4275 22.87C30.6605 23.106 30.9335 23.299 31.2335 23.44L31.5395 23.583H15.4775C15.3945 23.582 15.3125 23.588 15.2305 23.601C14.4535 23.729 13.9265 24.46 14.0515 25.236Z" fill="white"/>
</svg>
